# xmcd
#
# Track frame offsets:
#	150
#	20396
#	38078
#	54855
#	74504
#	89203
#	100953
#	115616
#	129582
#	144641
#	156553
#	173512
#	186740
#
# Disc length: 2784 seconds
# Revision: 1
# Processed by: cddbd v1.5.2PL0 Copyright (c) Steve Scherf et al.
# Submitted via: dBpowerAMP V12.0
#
DISCID=ba0ade0d
DTITLE=Lonesome River Band - Outside Looking In
DYEAR=2019
DGENRE=Bluegrass
TTITLE0=Generosity Killed This Cat
TTITLE1=New Ballards Branch
TTITLE2=Outside Looking In
TTITLE3=If I Had A Cheating Heart
TTITLE4=Cassidy's Prayer Book
TTITLE5=Little Magnolia
TTITLE6=Going With The Flow
TTITLE7=Circle Of Lies
TTITLE8=Wreck Of My Heart
TTITLE9=Your Memory Wins Again
TTITLE10=Home Of The Red Fox
TTITLE11=Rough And Tumble Heart
TTITLE12=Calling Elvis
EXTD=
EXTT0=
EXTT1=
EXTT2=
EXTT3=
EXTT4=
EXTT5=
EXTT6=
EXTT7=
EXTT8=
EXTT9=
EXTT10=
EXTT11=
EXTT12=
PLAYORDER=
